<svg width="26" height="26" viewBox="0 0 26 26" fill="none" xmlns="http://www.w3.org/2000/svg">
<path d="M20.6592 5.34082C18.8817 3.55169 16.5356 2.4388 14.0255 2.194C11.5154 1.94919 8.99855 2.58783 6.90884 3.99979C4.81913 5.41176 3.28753 7.50857 2.57808 9.92875C1.86864 12.3489 2.02581 14.9408 3.02251 17.2575C3.12639 17.4728 3.16047 17.7152 3.12001 17.9508L2.16667 22.5333C2.12994 22.709 2.13744 22.8911 2.1885 23.0632C2.23955 23.2352 2.33257 23.3919 2.45917 23.5191C2.56296 23.6222 2.68654 23.7031 2.82245 23.7571C2.95837 23.8111 3.10381 23.837 3.25001 23.8333H3.46667L8.10334 22.9017C8.339 22.8733 8.57797 22.9069 8.79667 22.9992C11.1134 23.9958 13.7052 24.153 16.1254 23.4436C18.5456 22.7341 20.6424 21.2025 22.0544 19.1128C23.4663 17.0231 24.105 14.5062 23.8602 11.9961C23.6154 9.48604 22.5025 7.14 20.7133 5.36248L20.6592 5.34082ZM8.66667 14.0833C8.45241 14.0833 8.24296 14.0198 8.0648 13.9007C7.88665 13.7817 7.7478 13.6125 7.6658 13.4146C7.58381 13.2166 7.56235 12.9988 7.60415 12.7886C7.64596 12.5785 7.74913 12.3855 7.90064 12.234C8.05215 12.0824 8.24518 11.9793 8.45532 11.9375C8.66547 11.8957 8.88329 11.9171 9.08125 11.9991C9.2792 12.0811 9.44839 12.22 9.56743 12.3981C9.68647 12.5763 9.75001 12.7857 9.75001 13C9.75001 13.2873 9.63587 13.5629 9.4327 13.766C9.22954 13.9692 8.95399 14.0833 8.66667 14.0833ZM13 14.0833C12.7857 14.0833 12.5763 14.0198 12.3981 13.9007C12.22 13.7817 12.0811 13.6125 11.9991 13.4146C11.9171 13.2166 11.8957 12.9988 11.9375 12.7886C11.9793 12.5785 12.0825 12.3855 12.234 12.234C12.3855 12.0824 12.5785 11.9793 12.7887 11.9375C12.9988 11.8957 13.2166 11.9171 13.4146 11.9991C13.6125 12.0811 13.7817 12.22 13.9008 12.3981C14.0198 12.5763 14.0833 12.7857 14.0833 13C14.0833 13.2873 13.9692 13.5629 13.766 13.766C13.5629 13.9692 13.2873 14.0833 13 14.0833ZM17.3333 14.0833C17.1191 14.0833 16.9096 14.0198 16.7315 13.9007C16.5533 13.7817 16.4145 13.6125 16.3325 13.4146C16.2505 13.2166 16.229 12.9988 16.2708 12.7886C16.3126 12.5785 16.4158 12.3855 16.5673 12.234C16.7188 12.0824 16.9118 11.9793 17.122 11.9375C17.3321 11.8957 17.55 11.9171 17.7479 11.9991C17.9459 12.0811 18.1151 12.22 18.2341 12.3981C18.3531 12.5763 18.4167 12.7857 18.4167 13C18.4167 13.2873 18.3025 13.5629 18.0994 13.766C17.8962 13.9692 17.6207 14.0833 17.3333 14.0833Z" fill="white"/>
</svg>
