<svg width="23" height="23" viewBox="0 0 23 23" fill="none" xmlns="http://www.w3.org/2000/svg">
<path d="M11.3269 0.485138C9.1843 0.485138 7.08978 1.1205 5.30825 2.31088C3.52672 3.50127 2.13818 5.1932 1.31823 7.17273C0.498285 9.15227 0.283749 11.3305 0.701756 13.4319C1.11976 15.5334 2.15154 17.4637 3.66661 18.9788C5.18167 20.4939 7.11199 21.5256 9.21345 21.9436C11.3149 22.3617 13.4931 22.1471 15.4727 21.3272C17.4522 20.5072 19.1441 19.1187 20.3345 17.3371C21.5249 15.5556 22.1603 13.4611 22.1603 11.3185C22.1603 9.89582 21.88 8.48709 21.3356 7.17273C20.7912 5.85837 19.9932 4.66412 18.9872 3.65815C17.9813 2.65218 16.787 1.8542 15.4727 1.30978C14.1583 0.76535 12.7496 0.485138 11.3269 0.485138ZM11.3269 19.9851C9.61282 19.9851 7.93721 19.4768 6.51199 18.5245C5.08676 17.5722 3.97593 16.2187 3.31997 14.6351C2.66401 13.0514 2.49239 11.3089 2.82679 9.62769C3.1612 7.94652 3.98661 6.40227 5.19867 5.19021C6.41072 3.97816 7.95498 3.15274 9.63615 2.81833C11.3173 2.48393 13.0599 2.65556 14.6435 3.31152C16.2271 3.96747 17.5807 5.0783 18.533 6.50353C19.4853 7.92875 19.9936 9.60437 19.9936 11.3185C19.9936 13.617 19.0805 15.8214 17.4552 17.4467C15.8299 19.072 13.6255 19.9851 11.3269 19.9851Z" fill="white"/>
<path d="M14.2627 8.38258C14.162 8.28104 14.0422 8.20045 13.9102 8.14545C13.7782 8.09045 13.6366 8.06213 13.4936 8.06213C13.3506 8.06213 13.209 8.09045 13.077 8.14545C12.9449 8.20045 12.8251 8.28104 12.7244 8.38258L11.3269 9.79092L9.92941 8.38258C9.72542 8.17859 9.44874 8.06398 9.16025 8.06398C8.87175 8.06398 8.59508 8.17859 8.39108 8.38258C8.18709 8.58658 8.07248 8.86326 8.07248 9.15175C8.07248 9.44024 8.18709 9.71692 8.39108 9.92092L9.79942 11.3184L8.39108 12.7159C8.28954 12.8166 8.20895 12.9364 8.15395 13.0685C8.09895 13.2005 8.07063 13.3421 8.07063 13.4851C8.07063 13.6281 8.09895 13.7697 8.15395 13.9017C8.20895 14.0337 8.28954 14.1535 8.39108 14.2542C8.49179 14.3558 8.61161 14.4364 8.74362 14.4914C8.87564 14.5464 9.01724 14.5747 9.16025 14.5747C9.30326 14.5747 9.44486 14.5464 9.57687 14.4914C9.70889 14.4364 9.82871 14.3558 9.92941 14.2542L11.3269 12.8459L12.7244 14.2542C12.8251 14.3558 12.9449 14.4364 13.077 14.4914C13.209 14.5464 13.3506 14.5747 13.4936 14.5747C13.6366 14.5747 13.7782 14.5464 13.9102 14.4914C14.0422 14.4364 14.162 14.3558 14.2627 14.2542C14.3643 14.1535 14.4449 14.0337 14.4999 13.9017C14.5549 13.7697 14.5832 13.6281 14.5832 13.4851C14.5832 13.3421 14.5549 13.2005 14.4999 13.0685C14.4449 12.9364 14.3643 12.8166 14.2627 12.7159L12.8544 11.3184L14.2627 9.92092C14.3643 9.82021 14.4449 9.70039 14.4999 9.56837C14.5549 9.43636 14.5832 9.29476 14.5832 9.15175C14.5832 9.00874 14.5549 8.86714 14.4999 8.73512C14.4449 8.60311 14.3643 8.48329 14.2627 8.38258Z" fill="white"/>
</svg>
