<svg width="33" height="32" viewBox="0 0 33 32" fill="none" xmlns="http://www.w3.org/2000/svg">
<path d="M27.4777 14.0334L17.4643 3.79921C17.3436 3.67748 17.1999 3.58086 17.0417 3.51492C16.8834 3.44899 16.7137 3.41504 16.5422 3.41504C16.3708 3.41504 16.201 3.44899 16.0427 3.51492C15.8845 3.58086 15.7408 3.67748 15.6201 3.79921L5.60673 14.0463C5.36443 14.2906 5.17307 14.5806 5.04376 14.8994C4.91444 15.2182 4.84976 15.5595 4.85345 15.9036V26.7871C4.85245 27.4519 5.10641 28.0919 5.56306 28.5751C6.0197 29.0583 6.64425 29.348 7.30809 29.3846H25.7763C26.4402 29.348 27.0647 29.0583 27.5213 28.5751C27.978 28.0919 28.232 27.4519 28.231 26.7871V15.9036C28.232 15.206 27.9619 14.5354 27.4777 14.0334ZM25.6335 26.7871H21.7372V17.6958C21.7372 17.3514 21.6004 17.021 21.3568 16.7775C21.1132 16.5339 20.7829 16.3971 20.4385 16.3971H12.646C12.3015 16.3971 11.9712 16.5339 11.7276 16.7775C11.484 17.021 11.3472 17.3514 11.3472 17.6958V26.7871H7.45095V15.8516L16.5422 6.56554L25.6335 15.9036V26.7871Z" fill="#0176D3"/>
</svg>
