<svg width="55" height="54" viewBox="0 0 55 54" fill="none" xmlns="http://www.w3.org/2000/svg">
<path d="M21.5494 5.67334H12.021C10.7575 5.67334 9.5457 6.17528 8.65224 7.06874C7.75878 7.9622 7.25684 9.17399 7.25684 10.4375V19.9659C7.25684 21.2295 7.75878 22.4413 8.65224 23.3347C9.5457 24.2282 10.7575 24.7301 12.021 24.7301H21.5494C22.813 24.7301 24.0248 24.2282 24.9182 23.3347C25.8117 22.4413 26.3136 21.2295 26.3136 19.9659V10.4375C26.3136 9.17399 25.8117 7.9622 24.9182 7.06874C24.0248 6.17528 22.813 5.67334 21.5494 5.67334ZM12.021 19.9659V10.4375H21.5494V19.9659H12.021Z" fill="#00A1E0"/>
<path d="M45.3704 5.67334H35.842C34.5785 5.67334 33.3667 6.17528 32.4732 7.06874C31.5798 7.9622 31.0778 9.17399 31.0778 10.4375V19.9659C31.0778 21.2295 31.5798 22.4413 32.4732 23.3347C33.3667 24.2282 34.5785 24.7301 35.842 24.7301H45.3704C46.634 24.7301 47.8457 24.2282 48.7392 23.3347C49.6327 22.4413 50.1346 21.2295 50.1346 19.9659V10.4375C50.1346 9.17399 49.6327 7.9622 48.7392 7.06874C47.8457 6.17528 46.634 5.67334 45.3704 5.67334ZM35.842 19.9659V10.4375H45.3704V19.9659H35.842Z" fill="#00A1E0"/>
<path d="M21.5494 29.4941H12.021C10.7575 29.4941 9.5457 29.9961 8.65224 30.8895C7.75878 31.783 7.25684 32.9948 7.25684 34.2583V43.7867C7.25684 45.0503 7.75878 46.2621 8.65224 47.1555C9.5457 48.049 10.7575 48.5509 12.021 48.5509H21.5494C22.813 48.5509 24.0248 48.049 24.9182 47.1555C25.8117 46.2621 26.3136 45.0503 26.3136 43.7867V34.2583C26.3136 32.9948 25.8117 31.783 24.9182 30.8895C24.0248 29.9961 22.813 29.4941 21.5494 29.4941ZM12.021 43.7867V34.2583H21.5494V43.7867H12.021Z" fill="#00A1E0"/>
<path d="M45.3704 29.4941H35.842C34.5785 29.4941 33.3667 29.9961 32.4732 30.8895C31.5798 31.783 31.0778 32.9948 31.0778 34.2583V43.7867C31.0778 45.0503 31.5798 46.2621 32.4732 47.1555C33.3667 48.049 34.5785 48.5509 35.842 48.5509H45.3704C46.634 48.5509 47.8457 48.049 48.7392 47.1555C49.6327 46.2621 50.1346 45.0503 50.1346 43.7867V34.2583C50.1346 32.9948 49.6327 31.783 48.7392 30.8895C47.8457 29.9961 46.634 29.4941 45.3704 29.4941ZM35.842 43.7867V34.2583H45.3704V43.7867H35.842Z" fill="#00A1E0"/>
</svg>
