<svg width="32" height="32" viewBox="0 0 32 32" fill="none" xmlns="http://www.w3.org/2000/svg">
<path d="M15.1145 14.805C16.142 14.805 17.1464 14.5004 18.0007 13.9295C18.855 13.3587 19.5209 12.5473 19.9141 11.5981C20.3073 10.6488 20.4102 9.60428 20.2097 8.59655C20.0093 7.58882 19.5145 6.66315 18.788 5.93662C18.0614 5.21009 17.1358 4.71531 16.128 4.51486C15.1203 4.31441 14.0758 4.41729 13.1265 4.81049C12.1772 5.20368 11.3659 5.86954 10.7951 6.72385C10.2242 7.57817 9.91954 8.58257 9.91954 9.61004C9.91954 10.9878 10.4669 12.3092 11.4411 13.2835C12.4154 14.2577 13.7367 14.805 15.1145 14.805Z" fill="#0176D3"/>
<path d="M20.4824 21.1258C21.8585 22.5019 22.6517 24.352 22.7031 26.2923H7.52595C7.57735 24.352 8.37058 22.5019 9.74671 21.1258C11.1703 19.7021 13.1012 18.9023 15.1145 18.9023C17.1279 18.9023 19.0587 19.7021 20.4824 21.1258Z" stroke="#0176D3" stroke-width="3"/>
</svg>
