<svg width="31" height="31" viewBox="0 0 31 31" fill="none" xmlns="http://www.w3.org/2000/svg">
<path d="M15.0333 14.3304C16.0285 14.3304 17.0014 14.0287 17.8289 13.4635C18.6564 12.8982 19.3014 12.0949 19.6822 11.1549C20.0631 10.215 20.1627 9.18072 19.9686 8.18289C19.7744 7.18507 19.2952 6.2685 18.5914 5.54911C17.8877 4.82972 16.9911 4.3398 16.015 4.14132C15.0389 3.94284 14.0271 4.04471 13.1076 4.43404C12.1882 4.82338 11.4023 5.48269 10.8494 6.32861C10.2965 7.17452 10.0013 8.16905 10.0013 9.18643C10.0013 10.5507 10.5315 11.8591 11.4752 12.8237C12.4188 13.7884 13.6987 14.3304 15.0333 14.3304Z" fill="white"/>
<path d="M20.1878 20.5879C21.5126 21.9422 22.2829 23.7681 22.3362 25.6902H7.73036C7.78371 23.7681 8.55404 21.9422 9.87885 20.5879C11.2516 19.1845 13.1064 18.4023 15.0333 18.4023C16.9602 18.4023 18.815 19.1845 20.1878 20.5879Z" stroke="white" stroke-width="3"/>
</svg>
