<svg width="29" height="30" viewBox="0 0 29 30" fill="none" xmlns="http://www.w3.org/2000/svg">
<path d="M24.2771 23.5469L20.2915 19.4304C21.5774 17.7333 22.2752 15.6376 22.2726 13.4802C22.2726 11.5588 21.7226 9.68063 20.6921 8.08308C19.6617 6.48552 18.197 5.24038 16.4834 4.50511C14.7698 3.76983 12.8843 3.57745 11.0651 3.95229C9.24598 4.32713 7.57499 5.25236 6.26346 6.61096C4.95193 7.96957 4.05877 9.70054 3.69692 11.585C3.33507 13.4694 3.52079 15.4227 4.23058 17.1978C4.94037 18.9729 6.14237 20.4901 7.68456 21.5576C9.22676 22.625 11.0399 23.1948 12.8947 23.1948C14.9773 23.1975 17.0004 22.4747 18.6386 21.1426L22.6126 25.2713C22.7215 25.3851 22.8512 25.4754 22.994 25.5371C23.1369 25.5987 23.2901 25.6305 23.4448 25.6305C23.5996 25.6305 23.7528 25.5987 23.8957 25.5371C24.0385 25.4754 24.1682 25.3851 24.2771 25.2713C24.387 25.1584 24.4742 25.0241 24.5337 24.8761C24.5932 24.7281 24.6239 24.5694 24.6239 24.4091C24.6239 24.2488 24.5932 24.0901 24.5337 23.9421C24.4742 23.7941 24.387 23.6598 24.2771 23.5469ZM5.86121 13.4802C5.86121 12.0392 6.27372 10.6305 7.04656 9.43236C7.81941 8.23419 8.91788 7.30034 10.2031 6.74888C11.4883 6.19743 12.9025 6.05314 14.2668 6.33427C15.6312 6.6154 16.8844 7.30932 17.8681 8.32827C18.8517 9.34723 19.5216 10.6455 19.793 12.0588C20.0644 13.4721 19.9251 14.9371 19.3927 16.2684C18.8604 17.5997 17.9589 18.7376 16.8022 19.5382C15.6456 20.3388 14.2857 20.7661 12.8947 20.7661C11.0293 20.7661 9.24029 19.9985 7.92126 18.6321C6.60223 17.2658 5.86121 15.4126 5.86121 13.4802Z" fill="white" stroke="white"/>
</svg>
