<svg width="29" height="29" viewBox="0 0 29 29" fill="none" xmlns="http://www.w3.org/2000/svg">
<path d="M24.8317 22.8331L20.865 18.8781C22.1448 17.2477 22.8392 15.2342 22.8367 13.1615C22.8367 11.3155 22.2893 9.511 21.2637 7.97614C20.2381 6.44128 18.7805 5.245 17.075 4.53859C15.3696 3.83217 13.493 3.64734 11.6825 4.00747C9.87199 4.3676 8.20895 5.25651 6.90366 6.5618C5.59837 7.86709 4.70945 9.53013 4.34932 11.3406C3.9892 13.1511 4.17403 15.0277 4.88044 16.7332C5.58686 18.4386 6.78314 19.8963 8.318 20.9218C9.85286 21.9474 11.6574 22.4948 13.5033 22.4948C15.5761 22.4974 17.5895 21.8029 19.22 20.5231L23.175 24.4898C23.2834 24.5991 23.4125 24.6859 23.5546 24.7452C23.6968 24.8044 23.8493 24.8349 24.0033 24.8349C24.1573 24.8349 24.3098 24.8044 24.452 24.7452C24.5942 24.6859 24.7232 24.5991 24.8317 24.4898C24.941 24.3813 25.0278 24.2523 25.087 24.1101C25.1463 23.968 25.1768 23.8155 25.1768 23.6615C25.1768 23.5074 25.1463 23.355 25.087 23.2128C25.0278 23.0706 24.941 22.9416 24.8317 22.8331ZM6.50332 13.1615C6.50332 11.777 6.91386 10.4236 7.68303 9.27247C8.4522 8.12133 9.54545 7.22412 10.8245 6.69431C12.1036 6.16449 13.5111 6.02587 14.869 6.29597C16.2268 6.56606 17.4741 7.23275 18.4531 8.21172C19.432 9.19068 20.0987 10.438 20.3688 11.7958C20.6389 13.1537 20.5003 14.5612 19.9705 15.8402C19.4407 17.1193 18.5435 18.2126 17.3923 18.9817C16.2412 19.7509 14.8878 20.1615 13.5033 20.1615C11.6468 20.1615 9.86633 19.424 8.55357 18.1112C7.24082 16.7985 6.50332 15.018 6.50332 13.1615Z" fill="#00A1E0" stroke="#00A1E0"/>
</svg>
