<svg width="30" height="31" viewBox="0 0 30 31" fill="none" xmlns="http://www.w3.org/2000/svg">
<path d="M21.3309 27.7917C16.3741 27.785 11.6221 25.7423 8.11703 22.1114C4.61201 18.4806 2.64006 13.558 2.63364 8.42322C2.63364 6.88884 3.22204 5.41731 4.26942 4.33234C5.31679 3.24737 6.73733 2.63784 8.21853 2.63784C8.53219 2.63536 8.84532 2.66485 9.1534 2.72588C9.45123 2.77153 9.74402 2.84736 10.0276 2.95226C10.227 3.02474 10.4047 3.14989 10.5431 3.31532C10.6815 3.48076 10.7758 3.68075 10.8167 3.89553L12.4801 11.4417C12.5249 11.6465 12.5195 11.8597 12.4643 12.0618C12.4092 12.2639 12.3061 12.4485 12.1644 12.5988C12.0066 12.7748 11.9944 12.7874 10.5011 13.5923C11.6969 16.31 13.7952 18.4925 16.4138 19.7424C17.2029 18.1829 17.2151 18.1703 17.385 18.0068C17.5301 17.86 17.7083 17.7532 17.9034 17.6961C18.0985 17.639 18.3043 17.6334 18.502 17.6798L25.7867 19.4029C25.9874 19.4511 26.1729 19.5514 26.3258 19.6945C26.4788 19.8375 26.5941 20.0185 26.6608 20.2204C26.7633 20.5189 26.8405 20.8261 26.8915 21.1385C26.9404 21.4546 26.9647 21.7742 26.9644 22.0943C26.942 23.6221 26.337 25.0787 25.2816 26.1462C24.2261 27.2136 22.8059 27.8051 21.3309 27.7917ZM8.21853 5.15322C7.38231 5.15653 6.58126 5.50211 5.98996 6.11464C5.39866 6.72717 5.06505 7.55698 5.06185 8.42322C5.06507 12.8919 6.78016 17.1766 9.8305 20.3365C12.8808 23.4963 17.0171 25.2729 21.3309 25.2763C22.1671 25.273 22.9682 24.9274 23.5595 24.3149C24.1508 23.7023 24.4844 22.8725 24.4876 22.0063C24.4876 21.8679 24.4876 21.7296 24.4876 21.5912L18.8541 20.2455L18.502 20.9372C17.9557 22.0314 17.555 22.8238 16.5352 22.3962C14.5233 21.6502 12.697 20.4493 11.1891 18.8808C9.68126 17.3122 8.52962 15.4155 7.81788 13.3282C7.3808 12.3472 8.20639 11.8944 9.25053 11.3285L9.91829 10.9889L8.61919 5.15322H8.21853Z" fill="white"/>
</svg>
